<svg xmlns="http://www.w3.org/2000/svg" width="24" height="24" viewBox="0 0 24 24">
  <g id="Group_2277" data-name="Group 2277" transform="translate(-1475 -2446)">
    <g id="Group_2272" data-name="Group 2272" transform="translate(1475 2446)">
      <path id="Path_235" data-name="Path 235" d="M1487,2470a12,12,0,1,1,12-12A12.014,12.014,0,0,1,1487,2470Zm0-21.6a9.6,9.6,0,1,0,9.6,9.6A9.611,9.611,0,0,0,1487,2448.4Z" transform="translate(-1475 -2446)" fill="#fff"/>
    </g>
    <g id="Group_2276" data-name="Group 2276" transform="translate(1482.2 2452)">
      <g id="Group_2273" data-name="Group 2273" transform="translate(0)">
        <path id="Path_236" data-name="Path 236" d="M1507.4,2468.4h-7.2a1.2,1.2,0,0,1,0-2.4h7.2a1.2,1.2,0,1,1,0,2.4Z" transform="translate(-1499 -2466)" fill="#fff"/>
      </g>
      <g id="Group_2274" data-name="Group 2274" transform="translate(0 4.8)">
        <path id="Path_237" data-name="Path 237" d="M1507.4,2484.4h-7.2a1.2,1.2,0,1,1,0-2.4h7.2a1.2,1.2,0,1,1,0,2.4Z" transform="translate(-1499 -2482)" fill="#fff"/>
      </g>
      <g id="Group_2275" data-name="Group 2275" transform="translate(0 9.6)">
        <path id="Path_238" data-name="Path 238" d="M1507.4,2500.4h-7.2a1.2,1.2,0,0,1,0-2.4h7.2a1.2,1.2,0,1,1,0,2.4Z" transform="translate(-1499 -2498)" fill="#fff"/>
      </g>
    </g>
  </g>
</svg>
