<?xml version="1.0" encoding="UTF-8"?>
<svg id="Layer_2" data-name="Layer 2" xmlns="http://www.w3.org/2000/svg" viewBox="0 0 87 87">
  <defs>
    <style>
      .cls-1 {
        fill: #fbf1d8;
      }
    </style>
  </defs>
  <g id="Layer_1-2" data-name="Layer 1">
    <g>
      <path class="cls-1" d="m55.76,42.99l-16.31-9.61c-.96-.57-2.18.13-2.18,1.25v19.21c0,1.12,1.22,1.81,2.18,1.25l16.31-9.61c.95-.56.95-1.93,0-2.49Z"/>
      <path class="cls-1" d="m43.5,0C19.51,0,0,19.51,0,43.5s19.51,43.5,43.5,43.5h36.72c3.74,0,6.78-3.04,6.78-6.78v-36.72C87,19.51,67.49,0,43.5,0Zm.91,70.06c-14.26,0-25.82-11.56-25.82-25.82s11.56-25.82,25.82-25.82,25.82,11.56,25.82,25.82-11.56,25.82-25.82,25.82Z"/>
    </g>
  </g>
</svg>