<svg xmlns="http://www.w3.org/2000/svg" width="63.444" height="63.445" viewBox="0 0 63.444 63.445">
  <path id="Subtraction_2" data-name="Subtraction 2" d="M57.581,62.445H31.222A31.223,31.223,0,1,1,62.444,31.223V57.581A4.869,4.869,0,0,1,57.581,62.445ZM19.5,15.1a3.718,3.718,0,0,0-3.714,3.714v14.8a19.043,19.043,0,0,0,18.2,19.013c.186.006.379.009.573.009,6.857,0,12.686-3.788,15.992-10.392l-2.277-1.14a2.331,2.331,0,0,0-1.052-.25,2.4,2.4,0,0,0-2,1.076,12.5,12.5,0,0,1-10.667,5.932h-.04A14.117,14.117,0,0,1,20.557,33.683V20.042a.166.166,0,0,1,.166-.166H34.555a12.109,12.109,0,0,1,6.36,1.708,13.612,13.612,0,0,1,4.026,3.828A2.407,2.407,0,0,0,46.9,26.431a2.358,2.358,0,0,0,1.123-.287l2.231-1.214C46.8,18.594,41.23,15.1,34.555,15.1Z" transform="translate(0.5 0.5)" fill="#fbf1d8" stroke="rgba(0,0,0,0)" stroke-miterlimit="10" stroke-width="1"/>
</svg>
