<?xml version="1.0" encoding="UTF-8"?>
<svg id="Layer_2" data-name="Layer 2" xmlns="http://www.w3.org/2000/svg" viewBox="0 0 540.59 69.23">
  <defs>
    <style>
      .cls-1 {
        fill: #fbf1d8;
      }
    </style>
  </defs>
  <g id="Layer_1-2" data-name="Layer 1">
    <g>
      <g>
        <path class="cls-1" d="m160,67.8h-14.98l.36-44.93h-.27l-16.5,44.93h-10.76l-16.05-44.93h-.27l.36,44.93h-14.44V4.3h21.79l14.44,40.71h.36l13.81-40.71h22.15v63.49Z"/>
        <path class="cls-1" d="m216.59,46.01c0,1.61-.03,2.78-.09,3.5h-32.37c.24,2.39,1.4,4.39,3.5,6.01,2.09,1.61,4.48,2.42,7.17,2.42,3.19,0,5.82-.85,7.89-2.56,1.37-1.12,3.29-1.27,4.78-.33l7.41,4.68c-4.37,6.34-11.12,9.51-20.27,9.51-7,0-12.84-2.11-17.53-6.32-4.69-4.21-7.04-9.97-7.04-17.26s2.29-12.96,6.86-17.35c4.57-4.39,10.33-6.59,17.26-6.59s12.11,2.17,16.23,6.5c4.13,4.34,6.19,10.27,6.19,17.8Zm-32.46-5.65h18.92c0-2.45-.76-4.48-2.29-6.1-1.52-1.61-3.69-2.42-6.5-2.42s-5.08.84-7,2.51c-1.91,1.67-2.96,3.68-3.14,6.01Z"/>
        <path class="cls-1" d="m273.08,67.8h-8.51c-2.78,0-5.03-2.25-5.03-5.03v-.8h-.18c-1.44,2.21-3.48,3.95-6.14,5.2-2.66,1.26-5.49,1.88-8.47,1.88-6.46,0-11.61-2.32-15.47-6.95-3.86-4.63-5.78-10.24-5.78-16.81s1.94-11.97,5.83-16.55c3.89-4.57,8.97-6.86,15.25-6.86,5.68,0,10.22,2,13.63,6.01h.18V0h9.67c2.78,0,5.03,2.25,5.03,5.03v62.77Zm-14.08-22.42c0-2.99-1-5.65-3-7.98-2-2.33-4.59-3.5-7.76-3.5s-5.87,1.12-7.76,3.36c-1.88,2.24-2.82,4.92-2.82,8.03s.94,5.89,2.82,8.16c1.88,2.27,4.47,3.41,7.76,3.41s5.75-1.15,7.76-3.45c2-2.3,3-4.98,3-8.03Z"/>
        <path class="cls-1" d="m300.7,8.88c0,2.27-.82,4.19-2.47,5.74-1.65,1.56-3.63,2.33-5.96,2.33s-4.32-.79-5.96-2.38c-1.64-1.58-2.47-3.48-2.47-5.69s.82-4.04,2.47-5.65c1.64-1.61,3.63-2.42,5.96-2.42s4.32.79,5.96,2.38c1.64,1.58,2.47,3.48,2.47,5.69Zm-1.08,58.92h-14.71V23.14h14.71v44.66Z"/>
        <path class="cls-1" d="m315.98,34.95l-5.33-5.71c5.32-5.02,11.96-7.53,19.91-7.53,7.35,0,12.61,1.87,15.78,5.61,3.17,3.74,4.75,9.73,4.75,17.98v22.51h-8.7c-2.62,0-4.75-2.13-4.75-4.75h0s-.27,0-.27,0c-1.08,1.79-2.78,3.21-5.11,4.26-2.33,1.05-4.84,1.57-7.53,1.57s-5.1-.4-7.4-1.21c-2.3-.81-4.35-2.32-6.14-4.53-1.79-2.21-2.69-4.96-2.69-8.25,0-10.04,9.56-15.07,28.7-15.07v-.72c0-2.09-.75-3.69-2.24-4.8-1.5-1.11-3.44-1.66-5.83-1.66-3.16,0-6.08.92-8.77,2.76-1.38.94-3.24.77-4.38-.45Zm21.67,14.91v-1.52h-1.88c-9.15,0-13.72,2.03-13.72,6.1,0,1.56.63,2.71,1.88,3.45,1.26.75,2.75,1.12,4.48,1.12,2.93,0,5.2-.82,6.82-2.47,1.61-1.64,2.42-3.87,2.42-6.68Z"/>
        <path class="cls-1" d="m387.6,34.17h-10.49v17.04c0,2.15.42,3.74,1.26,4.75.84,1.02,2.27,1.52,4.31,1.52,1.73,0,3.17-.24,4.3-.72l.18,10.76c-2.45.9-5.29,1.35-8.52,1.35-5.68,0-9.75-1.37-12.2-4.13-2.45-2.75-3.68-6.67-3.68-11.75v-18.83h-7.18v-11.03h7.09v-5.51c0-3.44,2.79-6.23,6.23-6.23h8.2v11.75h10.49v11.03Z"/>
        <path class="cls-1" d="m438.81,46.01c0,1.61-.03,2.78-.09,3.5h-32.37c.24,2.39,1.4,4.39,3.5,6.01,2.09,1.61,4.48,2.42,7.17,2.42,3.04,0,5.57-.77,7.6-2.33,1.65-1.26,3.93-1.29,5.69-.18l6.8,4.3c-4.37,6.34-11.12,9.51-20.27,9.51-7,0-12.84-2.11-17.53-6.32-4.69-4.21-7.04-9.97-7.04-17.26s2.29-12.96,6.86-17.35c4.57-4.39,10.33-6.59,17.26-6.59s12.11,2.17,16.23,6.5c4.13,4.34,6.19,10.27,6.19,17.8Zm-32.46-5.65h18.92c0-2.45-.76-4.48-2.29-6.1-1.52-1.61-3.69-2.42-6.5-2.42s-5.08.84-7,2.51c-1.91,1.67-2.96,3.68-3.14,6.01Z"/>
        <path class="cls-1" d="m478,43.32l17.94,24.48h-18.2l-14.62-21.43h-.27v21.43h-10.07c-2.61,0-4.73-2.12-4.73-4.73V0h10.07c2.61,0,4.73,2.12,4.73,4.73v36.52h.27l14.26-18.12h17.85l-17.22,20.18Z"/>
        <path class="cls-1" d="m504.68,34.09l-4.53-4.86c5.32-5.02,11.96-7.53,19.91-7.53,7.35,0,12.61,1.87,15.78,5.61,3.17,3.74,4.75,9.73,4.75,17.98v22.51h-8.7c-2.62,0-4.75-2.13-4.75-4.75h0s-.27,0-.27,0c-1.08,1.79-2.78,3.21-5.11,4.26-2.33,1.05-4.84,1.57-7.53,1.57s-5.1-.4-7.4-1.21c-2.3-.81-4.35-2.32-6.14-4.53-1.79-2.21-2.69-4.96-2.69-8.25,0-10.04,9.56-15.07,28.7-15.07v-.72c0-2.09-.75-3.69-2.24-4.8-1.5-1.11-3.44-1.66-5.83-1.66-2.85,0-5.51.75-7.98,2.25-1.93,1.17-4.42.85-5.96-.8Zm22.46,15.77v-1.52h-1.88c-9.15,0-13.72,2.03-13.72,6.1,0,1.56.63,2.71,1.88,3.45,1.26.75,2.75,1.12,4.48,1.12,2.93,0,5.2-.82,6.82-2.47,1.61-1.64,2.42-3.87,2.42-6.68Z"/>
      </g>
      <g>
        <path class="cls-1" d="m44.22,34.33l-12.94-7.62c-.76-.45-1.73.1-1.73.99v15.24c0,.89.96,1.44,1.73.99l12.94-7.62c.75-.44.75-1.53,0-1.98Z"/>
        <path class="cls-1" d="m34.5.23C15.48.23,0,15.71,0,34.73s15.48,34.5,34.5,34.5h29.13c2.96,0,5.37-2.41,5.37-5.37v-29.13C69,15.71,53.52.23,34.5.23Zm.72,55.56c-11.31,0-20.48-9.17-20.48-20.48s9.17-20.48,20.48-20.48,20.48,9.17,20.48,20.48-9.17,20.48-20.48,20.48Z"/>
      </g>
    </g>
  </g>
</svg>